<svg xmlns="http://www.w3.org/2000/svg" width="300" height="300">
  <defs>
    <radialGradient id="prefix__a" cx="146.768" cy="158.211" fx="146.768" fy="158.211" r="79.564"
      gradientUnits="userSpaceOnUse">
      <stop offset="0" stop-color="#3c9" />
      <stop offset=".202" stop-color="#31c895" />
      <stop offset=".399" stop-color="#2bbc89" />
      <stop offset=".594" stop-color="#21a875" />
      <stop offset=".788" stop-color="#138d5a" />
      <stop offset=".98" stop-color="#026a37" />
      <stop offset="1" stop-color="#063" />
    </radialGradient>
    <filter id="prefix__b" x="-20%" y="-20%" width="140%" height="140%">
      <feGaussianBlur in="SourceAlpha" result="blur" stdDeviation="4" />
      <feOffset dx="4" dy="4" in="blur" result="offsetBlur" />
      <feSpecularLighting in="blur" result="specOut" specularExponent="10" surfaceScale="5">
        <fePointLight x="-5000" y="-10000" z="-20000" />
      </feSpecularLighting>
      <feComposite in="specOut" in2="SourceAlpha" operator="in" result="specOut" />
      <feComposite in="SourceGraphic" in2="specOut" k2="1" k3="1" operator="arithmetic" result="litPaint" />
      <feMerge>
        <feMergeNode in="offsetBlur" />
        <feMergeNode in="litPaint" />
      </feMerge>
    </filter>
  </defs>
  <path
    d="M224.002 79.09c5.091-.396 1.802 8.881.62 11.339-5.05 13.396-19.927 18.97-33.406 18.47-3.166.063-7.356-.523-10.13-.166-1.348.274-.933 1.307-1.005 3.096.006 18.069-.007 91.9.002 103.248 0 .867.28 1.222 1.444 1.043 14.27-3.88 27.526-12.07 36.264-24.855 1.761-2.166 4.958-8.41 7.673-7.208 1.426 1.117 1.024 3.002.606 4.932-4.782 13.962-13.632 25.844-25.568 34.365-25.306 18.344-61.842 17.642-88.467 3.744-18.715-10.317-31.939-29.887-33.059-51.566-2.15-28.002 14.001-53.813 35.83-70.178 1.612-1.459 4.418-2.87 5.323-4.712.146-.551-.367-.926-1.445-1.161-2.824-.485-7.338-.585-10.522-.63-7.704 0-16.497 2.798-23.354 7.291-4.838 3.177-8.433 7.531-10.969 12.74-1.46 2.307-2.802 8.632-5.907 8.134-3.866-2.976 3.074-16.43 4.515-19.456 9.612-17.986 29.858-27.54 49.996-27.701 23.04-.093 55.3 8.11 76.299 9.163 7.363.453 15.338-.064 20.396-6.333 1.277-1.41 2.973-3.143 4.728-3.57l.136-.029zm-89.12 21.92c-.192-.031-.932-.095-2.003-.198-1.528-.02-2.623-.563-3.76.014-4.038 3.272-7.698 7.076-10.825 10.536-25.06 26.915-26.414 73.815 5.494 95.662.436.013.9-.212 1.367-.577 4.403-3.96 6.687-6.153 8.284-9.753.916-2.436 1.42-6.76 1.548-13.05-.034-3.225.204-78.954-.057-82.626l-.049-.009zm39.61 6.857c-5.398-.766-11.306-1.651-16.398-2.659-.375-.075-1.287-.323-1.269.024-.03 5.424.06 51.033-.036 66.839-.302 8.32.093 10.848-4.494 16.413-5.101 5.74-11.11 10.569-22.407 19.633-1.093.781-2.22 2.024-.6 2.77 15.214 7.37 28.497 8.734 44.98 6.418.545-.079.715-.134.722-.214-.37-3.88.73-106.29-.394-109.205l-.104-.019z"
    fill="url(#prefix__a)" filter="url(#prefix__b)" />
</svg>
